<svg xmlns="http://www.w3.org/2000/svg" xmlns:xlink="http://www.w3.org/1999/xlink" width="800" zoomAndPan="magnify" viewBox="0 0 600 425.999984" height="568" preserveAspectRatio="xMidYMid meet" version="1.0"><defs><g/><clipPath id="9437c42023"><path d="M 175.628906 162.425781 L 403 162.425781 L 403 390 L 175.628906 390 Z M 175.628906 162.425781 " clip-rule="nonzero"/></clipPath></defs><g clip-path="url(#9437c42023)"><path fill="#e9d8a6" d="M 310.230469 199.960938 C 296.464844 178.25 279.1875 162.425781 259.859375 162.425781 C 211.207031 162.425781 175.660156 262.457031 175.660156 304.960938 C 175.660156 306.488281 175.703125 308.015625 175.789062 309.542969 C 175.871094 311.070312 175.996094 312.59375 176.164062 314.113281 C 176.332031 315.628906 176.539062 317.144531 176.789062 318.652344 C 177.039062 320.160156 177.332031 321.660156 177.664062 323.152344 C 177.996094 324.644531 178.367188 326.125 178.78125 327.597656 C 179.195312 329.070312 179.648438 330.53125 180.140625 331.976562 C 180.632812 333.425781 181.164062 334.855469 181.734375 336.273438 C 182.304688 337.695312 182.914062 339.09375 183.5625 340.480469 C 184.210938 341.867188 184.894531 343.230469 185.617188 344.578125 C 186.339844 345.925781 187.097656 347.253906 187.894531 348.5625 C 188.6875 349.867188 189.515625 351.152344 190.382812 352.414062 C 191.246094 353.671875 192.144531 354.910156 193.078125 356.121094 C 194.011719 357.335938 194.976562 358.519531 195.972656 359.679688 C 196.96875 360.839844 198 361.972656 199.058594 363.074219 C 200.117188 364.179688 201.203125 365.253906 202.324219 366.296875 C 203.441406 367.34375 204.585938 368.355469 205.757812 369.339844 C 206.933594 370.320312 208.132812 371.269531 209.355469 372.1875 C 210.582031 373.101562 211.832031 373.984375 213.105469 374.835938 C 214.378906 375.683594 215.671875 376.496094 216.992188 377.273438 C 218.308594 378.054688 219.644531 378.796875 221.003906 379.5 C 222.363281 380.207031 223.738281 380.875 225.132812 381.503906 C 226.527344 382.132812 227.941406 382.726562 229.367188 383.28125 C 230.792969 383.832031 232.234375 384.347656 233.691406 384.824219 C 235.144531 385.296875 236.613281 385.734375 238.089844 386.128906 C 239.570312 386.523438 241.058594 386.878906 242.558594 387.191406 C 244.054688 387.507812 245.5625 387.78125 247.074219 388.011719 C 248.589844 388.242188 250.105469 388.433594 251.628906 388.582031 C 253.152344 388.734375 254.679688 388.839844 256.210938 388.90625 C 257.738281 388.972656 259.269531 388.996094 260.800781 388.980469 C 262.332031 388.964844 263.859375 388.90625 265.386719 388.804688 C 266.917969 388.703125 268.441406 388.5625 269.960938 388.378906 C 271.480469 388.195312 272.992188 387.972656 274.5 387.703125 C 277.820312 388.300781 281.160156 388.691406 284.527344 388.882812 C 287.894531 389.078125 291.257812 389.066406 294.621094 388.851562 C 297.988281 388.636719 301.324219 388.222656 304.640625 387.605469 C 307.953125 386.988281 311.21875 386.175781 314.433594 385.167969 C 317.652344 384.15625 320.792969 382.957031 323.863281 381.570312 C 326.9375 380.179688 329.910156 378.613281 332.792969 376.863281 C 335.675781 375.117188 338.4375 373.203125 341.089844 371.121094 C 343.738281 369.039062 346.253906 366.808594 348.632812 364.425781 C 378.796875 334.199219 424.59375 238.480469 390.109375 204.164062 C 370.414062 184.535156 332.707031 192.613281 310.230469 199.960938 Z M 259.859375 381.710938 C 258.601562 381.710938 257.34375 381.679688 256.085938 381.617188 C 254.828125 381.558594 253.574219 381.464844 252.324219 381.339844 C 251.070312 381.21875 249.824219 381.066406 248.578125 380.878906 C 247.332031 380.695312 246.09375 380.480469 244.859375 380.238281 C 243.625 379.992188 242.398438 379.714844 241.179688 379.410156 C 239.957031 379.105469 238.746094 378.769531 237.542969 378.40625 C 236.339844 378.042969 235.144531 377.648438 233.960938 377.222656 C 232.773438 376.800781 231.601562 376.347656 230.4375 375.867188 C 229.277344 375.386719 228.125 374.878906 226.988281 374.34375 C 225.851562 373.804688 224.730469 373.242188 223.621094 372.648438 C 222.507812 372.054688 221.414062 371.4375 220.335938 370.792969 C 219.257812 370.144531 218.195312 369.472656 217.148438 368.777344 C 216.101562 368.078125 215.074219 367.355469 214.0625 366.605469 C 213.050781 365.859375 212.0625 365.085938 211.089844 364.289062 C 210.117188 363.492188 209.164062 362.671875 208.230469 361.828125 C 207.300781 360.984375 206.386719 360.121094 205.5 359.230469 C 204.609375 358.34375 203.742188 357.433594 202.898438 356.503906 C 202.050781 355.574219 201.230469 354.621094 200.433594 353.652344 C 199.632812 352.679688 198.859375 351.691406 198.109375 350.679688 C 197.359375 349.671875 196.636719 348.644531 195.9375 347.601562 C 195.238281 346.558594 194.566406 345.496094 193.917969 344.417969 C 193.273438 343.339844 192.652344 342.25 192.058594 341.140625 C 191.464844 340.03125 190.902344 338.910156 190.363281 337.777344 C 189.824219 336.640625 189.316406 335.492188 188.832031 334.332031 C 188.351562 333.171875 187.898438 332 187.476562 330.816406 C 187.050781 329.636719 186.65625 328.441406 186.292969 327.242188 C 185.925781 326.039062 185.589844 324.828125 185.285156 323.609375 C 184.980469 322.390625 184.703125 321.167969 184.460938 319.933594 C 184.214844 318.703125 184 317.464844 183.8125 316.222656 C 183.628906 314.980469 183.476562 313.734375 183.351562 312.484375 C 183.230469 311.234375 183.136719 309.980469 183.074219 308.726562 C 183.011719 307.472656 182.980469 306.21875 182.980469 304.960938 C 182.980469 282.59375 192.535156 247.835938 206.191406 220.5 C 222.300781 188.226562 241.882812 169.734375 259.859375 169.734375 C 301.152344 169.734375 336.734375 260.445312 336.734375 304.960938 C 336.734375 306.21875 336.703125 307.472656 336.640625 308.726562 C 336.582031 309.980469 336.488281 311.234375 336.363281 312.484375 C 336.242188 313.734375 336.085938 314.980469 335.902344 316.222656 C 335.71875 317.464844 335.503906 318.703125 335.257812 319.933594 C 335.011719 321.167969 334.738281 322.390625 334.429688 323.609375 C 334.125 324.828125 333.789062 326.039062 333.425781 327.242188 C 333.058594 328.441406 332.664062 329.632812 332.242188 330.816406 C 331.816406 332 331.363281 333.171875 330.882812 334.332031 C 330.402344 335.492188 329.890625 336.640625 329.355469 337.777344 C 328.816406 338.910156 328.25 340.03125 327.65625 341.140625 C 327.0625 342.25 326.445312 343.339844 325.796875 344.417969 C 325.152344 345.496094 324.476562 346.558594 323.777344 347.601562 C 323.078125 348.644531 322.355469 349.671875 321.605469 350.679688 C 320.855469 351.691406 320.082031 352.679688 319.285156 353.652344 C 318.488281 354.621094 317.664062 355.574219 316.820312 356.503906 C 315.976562 357.433594 315.109375 358.34375 314.21875 359.230469 C 313.328125 360.121094 312.417969 360.984375 311.484375 361.828125 C 310.554688 362.671875 309.601562 363.492188 308.628906 364.289062 C 307.65625 365.085938 306.664062 365.859375 305.652344 366.605469 C 304.644531 367.355469 303.613281 368.078125 302.570312 368.777344 C 301.523438 369.472656 300.460938 370.144531 299.382812 370.792969 C 298.300781 371.4375 297.207031 372.054688 296.097656 372.648438 C 294.988281 373.242188 293.863281 373.804688 292.726562 374.34375 C 291.589844 374.878906 290.441406 375.386719 289.277344 375.867188 C 288.117188 376.347656 286.941406 376.800781 285.757812 377.222656 C 284.574219 377.648438 283.378906 378.042969 282.175781 378.40625 C 280.96875 378.769531 279.757812 379.105469 278.539062 379.410156 C 277.316406 379.714844 276.089844 379.992188 274.855469 380.238281 C 273.621094 380.480469 272.382812 380.695312 271.136719 380.878906 C 269.894531 381.066406 268.644531 381.21875 267.394531 381.339844 C 266.140625 381.464844 264.886719 381.558594 263.628906 381.617188 C 262.375 381.679688 261.117188 381.710938 259.859375 381.710938 Z M 343.507812 359.234375 C 340.261719 362.46875 336.757812 365.390625 332.992188 368 C 329.222656 370.609375 325.253906 372.863281 321.082031 374.761719 C 316.910156 376.664062 312.605469 378.179688 308.160156 379.308594 C 303.71875 380.4375 299.210938 381.167969 294.636719 381.492188 C 296.464844 380.664062 298.261719 379.769531 300.027344 378.8125 C 301.792969 377.855469 303.523438 376.839844 305.214844 375.757812 C 306.90625 374.679688 308.558594 373.539062 310.171875 372.339844 C 311.78125 371.140625 313.347656 369.886719 314.867188 368.578125 C 316.386719 367.265625 317.859375 365.902344 319.285156 364.488281 C 320.707031 363.074219 322.078125 361.609375 323.394531 360.09375 C 324.714844 358.582031 325.976562 357.023438 327.183594 355.417969 C 328.390625 353.816406 329.535156 352.171875 330.625 350.484375 C 331.714844 348.800781 332.738281 347.078125 333.703125 345.320312 C 334.671875 343.558594 335.570312 341.769531 336.40625 339.945312 C 337.242188 338.121094 338.015625 336.269531 338.71875 334.394531 C 339.421875 332.515625 340.058594 330.613281 340.625 328.6875 C 341.191406 326.765625 341.691406 324.824219 342.121094 322.863281 C 342.546875 320.90625 342.90625 318.933594 343.191406 316.949219 C 343.480469 314.964844 343.695312 312.96875 343.839844 310.96875 C 343.984375 308.96875 344.054688 306.964844 344.054688 304.960938 C 344.054688 280.984375 332.746094 238.699219 314.148438 206.28125 C 346.875 195.867188 372.71875 196.890625 384.910156 209.242188 C 414.085938 238.480469 375.027344 327.730469 343.507812 359.234375 Z M 343.507812 359.234375 " fill-opacity="1" fill-rule="nonzero"/></g><path fill="#e9d8a6" d="M 197.625 301.304688 L 190.304688 301.304688 C 190.304688 302.503906 190.332031 303.699219 190.390625 304.894531 C 190.449219 306.085938 190.539062 307.28125 190.65625 308.472656 C 190.773438 309.660156 190.921875 310.847656 191.097656 312.03125 C 191.273438 313.214844 191.476562 314.394531 191.710938 315.566406 C 191.945312 316.738281 192.207031 317.90625 192.496094 319.066406 C 192.789062 320.226562 193.109375 321.378906 193.457031 322.523438 C 193.804688 323.667969 194.179688 324.804688 194.582031 325.929688 C 194.988281 327.058594 195.417969 328.171875 195.875 329.277344 C 196.335938 330.382812 196.820312 331.476562 197.332031 332.558594 C 197.84375 333.640625 198.382812 334.707031 198.949219 335.761719 C 199.511719 336.816406 200.105469 337.859375 200.71875 338.886719 C 201.335938 339.910156 201.976562 340.921875 202.644531 341.914062 C 203.308594 342.910156 204 343.886719 204.710938 344.847656 C 205.425781 345.808594 206.164062 346.753906 206.921875 347.675781 C 207.683594 348.601562 208.464844 349.507812 209.269531 350.394531 C 210.074219 351.28125 210.902344 352.148438 211.746094 352.992188 C 212.59375 353.839844 213.460938 354.664062 214.351562 355.464844 C 215.238281 356.269531 216.144531 357.050781 217.070312 357.808594 C 217.996094 358.570312 218.941406 359.304688 219.90625 360.015625 C 220.867188 360.730469 221.847656 361.417969 222.84375 362.082031 C 223.839844 362.746094 224.851562 363.386719 225.878906 364.003906 C 226.90625 364.617188 227.949219 365.207031 229.003906 365.769531 C 230.0625 366.335938 231.132812 366.871094 232.214844 367.382812 C 233.296875 367.894531 234.394531 368.378906 235.5 368.835938 C 236.609375 369.296875 237.726562 369.726562 238.855469 370.128906 C 239.980469 370.53125 241.121094 370.90625 242.265625 371.253906 C 243.414062 371.601562 244.566406 371.921875 245.730469 372.210938 C 246.890625 372.5 248.058594 372.765625 249.234375 372.996094 C 250.410156 373.230469 251.589844 373.433594 252.777344 373.609375 C 253.960938 373.785156 255.152344 373.933594 256.34375 374.050781 C 257.535156 374.167969 258.730469 374.253906 259.925781 374.3125 C 261.125 374.371094 262.320312 374.402344 263.519531 374.402344 L 263.519531 367.09375 C 262.441406 367.09375 261.363281 367.066406 260.285156 367.011719 C 259.207031 366.960938 258.132812 366.878906 257.058594 366.773438 C 255.988281 366.667969 254.917969 366.539062 253.851562 366.378906 C 252.785156 366.222656 251.722656 366.039062 250.664062 365.828125 C 249.605469 365.617188 248.554688 365.382812 247.507812 365.121094 C 246.460938 364.859375 245.421875 364.570312 244.390625 364.257812 C 243.359375 363.945312 242.335938 363.609375 241.320312 363.246094 C 240.304688 362.882812 239.300781 362.496094 238.300781 362.085938 C 237.304688 361.671875 236.320312 361.234375 235.347656 360.777344 C 234.371094 360.316406 233.40625 359.832031 232.457031 359.324219 C 231.507812 358.816406 230.566406 358.285156 229.644531 357.734375 C 228.71875 357.179688 227.808594 356.601562 226.910156 356.003906 C 226.015625 355.40625 225.132812 354.789062 224.265625 354.144531 C 223.398438 353.503906 222.550781 352.84375 221.714844 352.160156 C 220.882812 351.476562 220.066406 350.773438 219.265625 350.050781 C 218.46875 349.328125 217.6875 348.585938 216.925781 347.824219 C 216.164062 347.0625 215.417969 346.28125 214.695312 345.484375 C 213.972656 344.6875 213.265625 343.871094 212.582031 343.039062 C 211.898438 342.207031 211.234375 341.359375 210.59375 340.496094 C 209.949219 339.628906 209.328125 338.75 208.730469 337.855469 C 208.132812 336.960938 207.554688 336.050781 207 335.125 C 206.445312 334.203125 205.914062 333.265625 205.40625 332.316406 C 204.898438 331.367188 204.414062 330.40625 203.953125 329.433594 C 203.492188 328.460938 203.054688 327.476562 202.640625 326.480469 C 202.226562 325.488281 201.839844 324.484375 201.476562 323.46875 C 201.113281 322.457031 200.777344 321.433594 200.460938 320.402344 C 200.148438 319.371094 199.863281 318.335938 199.601562 317.289062 C 199.339844 316.246094 199.101562 315.195312 198.890625 314.140625 C 198.679688 313.085938 198.496094 312.023438 198.339844 310.960938 C 198.179688 309.894531 198.046875 308.824219 197.941406 307.753906 C 197.835938 306.683594 197.757812 305.609375 197.703125 304.535156 C 197.652344 303.457031 197.625 302.382812 197.625 301.304688 Z M 197.625 301.304688 " fill-opacity="1" fill-rule="nonzero"/><g fill="#e9d8a6" fill-opacity="1"><g transform="translate(209.01836, 76.581685)"><g><path d="M 3.546875 0 L 3.546875 -36.53125 L 10.234375 -36.53125 L 10.234375 -5.21875 L 26.40625 -5.21875 L 26.40625 0 Z M 3.546875 0 "/></g></g></g><g fill="#e9d8a6" fill-opacity="1"><g transform="translate(237.771506, 76.581685)"><g><path d="M 2.140625 -23.6875 L 5.015625 -36.53125 L 12.0625 -36.53125 L 6.734375 -23.6875 Z M 2.140625 -23.6875 "/></g></g></g><g fill="#e9d8a6" fill-opacity="1"><g transform="translate(251.547966, 76.581685)"><g><path d="M 20.671875 0.625 C 17.015625 0.625 13.820312 -0.171875 11.09375 -1.765625 C 8.363281 -3.367188 6.222656 -5.585938 4.671875 -8.421875 C 3.117188 -11.265625 2.34375 -14.546875 2.34375 -18.265625 C 2.34375 -21.984375 3.117188 -25.257812 4.671875 -28.09375 C 6.222656 -30.9375 8.363281 -33.15625 11.09375 -34.75 C 13.820312 -36.351562 17.015625 -37.15625 20.671875 -37.15625 C 24.285156 -37.15625 27.46875 -36.351562 30.21875 -34.75 C 32.96875 -33.15625 35.109375 -30.9375 36.640625 -28.09375 C 38.171875 -25.257812 38.9375 -21.984375 38.9375 -18.265625 C 38.9375 -14.546875 38.171875 -11.265625 36.640625 -8.421875 C 35.109375 -5.585938 32.96875 -3.367188 30.21875 -1.765625 C 27.46875 -0.171875 24.285156 0.625 20.671875 0.625 Z M 20.671875 -5.375 C 24.148438 -5.375 26.921875 -6.519531 28.984375 -8.8125 C 31.054688 -11.113281 32.09375 -14.265625 32.09375 -18.265625 C 32.09375 -22.265625 31.054688 -25.410156 28.984375 -27.703125 C 26.921875 -30.003906 24.148438 -31.15625 20.671875 -31.15625 C 17.191406 -31.15625 14.40625 -30.003906 12.3125 -27.703125 C 10.226562 -25.410156 9.1875 -22.265625 9.1875 -18.265625 C 9.1875 -14.265625 10.226562 -11.113281 12.3125 -8.8125 C 14.40625 -6.519531 17.191406 -5.375 20.671875 -5.375 Z M 20.671875 -5.375 "/></g></g></g><g fill="#e9d8a6" fill-opacity="1"><g transform="translate(292.825174, 76.581685)"><g><path d="M 14.140625 0 L 0.78125 -36.53125 L 7.9375 -36.53125 L 18.265625 -6.84375 L 28.65625 -36.53125 L 35.703125 -36.53125 L 22.34375 0 Z M 14.140625 0 "/></g></g></g><g fill="#e9d8a6" fill-opacity="1"><g transform="translate(329.301482, 76.581685)"><g><path d="M 20.671875 0.625 C 17.015625 0.625 13.820312 -0.171875 11.09375 -1.765625 C 8.363281 -3.367188 6.222656 -5.585938 4.671875 -8.421875 C 3.117188 -11.265625 2.34375 -14.546875 2.34375 -18.265625 C 2.34375 -21.984375 3.117188 -25.257812 4.671875 -28.09375 C 6.222656 -30.9375 8.363281 -33.15625 11.09375 -34.75 C 13.820312 -36.351562 17.015625 -37.15625 20.671875 -37.15625 C 24.285156 -37.15625 27.46875 -36.351562 30.21875 -34.75 C 32.96875 -33.15625 35.109375 -30.9375 36.640625 -28.09375 C 38.171875 -25.257812 38.9375 -21.984375 38.9375 -18.265625 C 38.9375 -14.546875 38.171875 -11.265625 36.640625 -8.421875 C 35.109375 -5.585938 32.96875 -3.367188 30.21875 -1.765625 C 27.46875 -0.171875 24.285156 0.625 20.671875 0.625 Z M 20.671875 -5.375 C 24.148438 -5.375 26.921875 -6.519531 28.984375 -8.8125 C 31.054688 -11.113281 32.09375 -14.265625 32.09375 -18.265625 C 32.09375 -22.265625 31.054688 -25.410156 28.984375 -27.703125 C 26.921875 -30.003906 24.148438 -31.15625 20.671875 -31.15625 C 17.191406 -31.15625 14.40625 -30.003906 12.3125 -27.703125 C 10.226562 -25.410156 9.1875 -22.265625 9.1875 -18.265625 C 9.1875 -14.265625 10.226562 -11.113281 12.3125 -8.8125 C 14.40625 -6.519531 17.191406 -5.375 20.671875 -5.375 Z M 20.671875 -5.375 "/></g></g></g></svg>