<svg xmlns="http://www.w3.org/2000/svg" xmlns:xlink="http://www.w3.org/1999/xlink" width="375" zoomAndPan="magnify" viewBox="0 0 281.25 431.249985" height="575" preserveAspectRatio="xMidYMid meet" version="1.0"><defs><g/><clipPath id="9863fea1cc"><path d="M 28.050781 161.890625 L 253 161.890625 L 253 387 L 28.050781 387 Z M 28.050781 161.890625 " clip-rule="nonzero"/></clipPath></defs><g clip-path="url(#9863fea1cc)"><path fill="#e9d8a6" d="M 161.082031 199.082031 C 147.480469 177.570312 130.402344 161.890625 111.296875 161.890625 C 63.214844 161.890625 28.082031 261.007812 28.082031 303.121094 C 28.082031 304.636719 28.125 306.148438 28.207031 307.664062 C 28.289062 309.175781 28.414062 310.683594 28.578125 312.1875 C 28.746094 313.695312 28.953125 315.195312 29.199219 316.6875 C 29.445312 318.183594 29.734375 319.667969 30.0625 321.148438 C 30.390625 322.625 30.757812 324.09375 31.164062 325.550781 C 31.574219 327.011719 32.019531 328.457031 32.507812 329.890625 C 32.996094 331.324219 33.519531 332.746094 34.085938 334.148438 C 34.648438 335.554688 35.25 336.945312 35.890625 338.316406 C 36.53125 339.6875 37.207031 341.042969 37.921875 342.378906 C 38.636719 343.714844 39.386719 345.027344 40.171875 346.324219 C 40.957031 347.617188 41.777344 348.890625 42.632812 350.140625 C 43.484375 351.390625 44.375 352.613281 45.296875 353.816406 C 46.21875 355.015625 47.171875 356.191406 48.15625 357.339844 C 49.140625 358.488281 50.160156 359.613281 51.207031 360.703125 C 52.253906 361.796875 53.328125 362.863281 54.433594 363.898438 C 55.539062 364.933594 56.667969 365.9375 57.828125 366.910156 C 58.988281 367.882812 60.171875 368.824219 61.382812 369.730469 C 62.59375 370.640625 63.828125 371.515625 65.089844 372.355469 C 66.347656 373.199219 67.628906 374.003906 68.929688 374.773438 C 70.230469 375.546875 71.554688 376.28125 72.898438 376.980469 C 74.238281 377.679688 75.597656 378.339844 76.976562 378.964844 C 78.355469 379.589844 79.75 380.175781 81.160156 380.722656 C 82.570312 381.273438 83.996094 381.78125 85.433594 382.253906 C 86.871094 382.722656 88.324219 383.15625 89.785156 383.546875 C 91.246094 383.9375 92.71875 384.289062 94.199219 384.601562 C 95.679688 384.910156 97.167969 385.183594 98.664062 385.414062 C 100.160156 385.640625 101.660156 385.832031 103.164062 385.980469 C 104.671875 386.128906 106.179688 386.234375 107.691406 386.300781 C 109.203125 386.363281 110.714844 386.390625 112.230469 386.371094 C 113.742188 386.355469 115.253906 386.296875 116.761719 386.199219 C 118.273438 386.097656 119.78125 385.957031 121.28125 385.777344 C 122.785156 385.59375 124.28125 385.371094 125.769531 385.109375 C 129.050781 385.699219 132.351562 386.085938 135.679688 386.277344 C 139.003906 386.46875 142.332031 386.457031 145.65625 386.246094 C 148.980469 386.03125 152.28125 385.621094 155.558594 385.011719 C 158.832031 384.398438 162.058594 383.59375 165.238281 382.59375 C 168.417969 381.59375 171.523438 380.40625 174.558594 379.027344 C 177.59375 377.652344 180.535156 376.097656 183.382812 374.367188 C 186.230469 372.636719 188.960938 370.738281 191.582031 368.675781 C 194.199219 366.613281 196.683594 364.402344 199.035156 362.039062 C 228.851562 332.09375 274.113281 237.25 240.03125 203.246094 C 220.566406 183.800781 183.296875 191.804688 161.082031 199.082031 Z M 111.296875 379.167969 C 110.054688 379.167969 108.8125 379.140625 107.570312 379.078125 C 106.328125 379.015625 105.089844 378.925781 103.851562 378.804688 C 102.613281 378.679688 101.378906 378.527344 100.148438 378.347656 C 98.917969 378.164062 97.695312 377.949219 96.476562 377.707031 C 95.253906 377.464844 94.042969 377.191406 92.835938 376.890625 C 91.628906 376.589844 90.433594 376.257812 89.242188 375.894531 C 88.050781 375.535156 86.871094 375.144531 85.699219 374.722656 C 84.53125 374.304688 83.371094 373.855469 82.222656 373.378906 C 81.074219 372.90625 79.9375 372.398438 78.8125 371.867188 C 77.6875 371.335938 76.578125 370.777344 75.480469 370.191406 C 74.382812 369.601562 73.304688 368.988281 72.234375 368.351562 C 71.167969 367.710938 70.121094 367.042969 69.085938 366.351562 C 68.050781 365.660156 67.035156 364.945312 66.035156 364.203125 C 65.039062 363.460938 64.058594 362.695312 63.097656 361.90625 C 62.136719 361.117188 61.195312 360.304688 60.273438 359.46875 C 59.351562 358.632812 58.449219 357.777344 57.570312 356.894531 C 56.691406 356.015625 55.835938 355.113281 55 354.191406 C 54.164062 353.269531 53.351562 352.328125 52.5625 351.367188 C 51.777344 350.402344 51.011719 349.421875 50.269531 348.421875 C 49.527344 347.425781 48.8125 346.40625 48.121094 345.371094 C 47.433594 344.335938 46.765625 343.285156 46.128906 342.21875 C 45.488281 341.152344 44.875 340.070312 44.289062 338.972656 C 43.703125 337.875 43.144531 336.761719 42.613281 335.636719 C 42.082031 334.511719 41.578125 333.375 41.101562 332.222656 C 40.625 331.074219 40.179688 329.914062 39.757812 328.742188 C 39.339844 327.570312 38.949219 326.390625 38.589844 325.199219 C 38.226562 324.007812 37.898438 322.808594 37.59375 321.601562 C 37.292969 320.394531 37.019531 319.179688 36.777344 317.957031 C 36.535156 316.738281 36.324219 315.511719 36.140625 314.28125 C 35.957031 313.050781 35.804688 311.816406 35.683594 310.578125 C 35.5625 309.335938 35.46875 308.097656 35.410156 306.855469 C 35.347656 305.609375 35.316406 304.367188 35.316406 303.121094 C 35.316406 280.960938 44.761719 246.523438 58.257812 219.433594 C 74.175781 187.457031 93.53125 169.132812 111.296875 169.132812 C 152.109375 169.132812 187.277344 259.015625 187.277344 303.121094 C 187.277344 304.367188 187.246094 305.609375 187.1875 306.855469 C 187.125 308.097656 187.035156 309.335938 186.914062 310.578125 C 186.789062 311.816406 186.636719 313.050781 186.457031 314.28125 C 186.273438 315.511719 186.0625 316.738281 185.816406 317.957031 C 185.574219 319.179688 185.304688 320.394531 185 321.601562 C 184.699219 322.808594 184.367188 324.007812 184.007812 325.199219 C 183.644531 326.390625 183.253906 327.570312 182.835938 328.742188 C 182.417969 329.914062 181.96875 331.074219 181.496094 332.222656 C 181.019531 333.375 180.515625 334.511719 179.984375 335.636719 C 179.453125 336.761719 178.894531 337.875 178.304688 338.972656 C 177.71875 340.070312 177.109375 341.152344 176.46875 342.21875 C 175.828125 343.285156 175.164062 344.335938 174.472656 345.371094 C 173.78125 346.40625 173.066406 347.425781 172.324219 348.421875 C 171.585938 349.421875 170.820312 350.402344 170.03125 351.367188 C 169.242188 352.328125 168.429688 353.269531 167.59375 354.191406 C 166.761719 355.113281 165.902344 356.015625 165.023438 356.894531 C 164.144531 357.777344 163.246094 358.632812 162.324219 359.46875 C 161.402344 360.304688 160.460938 361.117188 159.5 361.90625 C 158.539062 362.695312 157.558594 363.460938 156.558594 364.203125 C 155.558594 364.945312 154.542969 365.660156 153.511719 366.351562 C 152.476562 367.042969 151.425781 367.710938 150.359375 368.351562 C 149.292969 368.988281 148.210938 369.601562 147.113281 370.191406 C 146.019531 370.777344 144.90625 371.335938 143.785156 371.867188 C 142.660156 372.398438 141.523438 372.90625 140.375 373.378906 C 139.226562 373.855469 138.066406 374.304688 136.894531 374.722656 C 135.722656 375.144531 134.542969 375.535156 133.355469 375.894531 C 132.164062 376.257812 130.964844 376.589844 129.757812 376.890625 C 128.554688 377.191406 127.339844 377.464844 126.121094 377.707031 C 124.902344 377.949219 123.675781 378.164062 122.445312 378.347656 C 121.214844 378.527344 119.984375 378.679688 118.746094 378.804688 C 117.507812 378.925781 116.269531 379.015625 115.027344 379.078125 C 113.785156 379.140625 112.542969 379.167969 111.296875 379.167969 Z M 193.972656 356.898438 C 190.765625 360.105469 187.300781 363 183.578125 365.585938 C 179.855469 368.167969 175.929688 370.402344 171.808594 372.285156 C 167.683594 374.167969 163.429688 375.667969 159.035156 376.789062 C 154.644531 377.910156 150.191406 378.628906 145.667969 378.953125 C 147.476562 378.132812 149.253906 377.246094 151 376.300781 C 152.746094 375.351562 154.453125 374.339844 156.125 373.269531 C 157.796875 372.199219 159.429688 371.070312 161.023438 369.882812 C 162.613281 368.695312 164.164062 367.453125 165.664062 366.15625 C 167.167969 364.859375 168.625 363.507812 170.03125 362.105469 C 171.4375 360.703125 172.792969 359.25 174.09375 357.75 C 175.398438 356.253906 176.644531 354.707031 177.835938 353.117188 C 179.027344 351.53125 180.164062 349.898438 181.238281 348.230469 C 182.316406 346.558594 183.328125 344.851562 184.285156 343.109375 C 185.238281 341.367188 186.128906 339.59375 186.953125 337.785156 C 187.78125 335.980469 188.542969 334.144531 189.238281 332.285156 C 189.933594 330.421875 190.5625 328.539062 191.125 326.632812 C 191.683594 324.726562 192.175781 322.804688 192.601562 320.863281 C 193.023438 318.921875 193.375 316.964844 193.660156 315 C 193.945312 313.03125 194.15625 311.058594 194.300781 309.078125 C 194.441406 307.09375 194.515625 305.109375 194.515625 303.121094 C 194.515625 279.367188 183.335938 237.46875 164.953125 205.347656 C 197.300781 195.027344 222.84375 196.039062 234.890625 208.28125 C 263.730469 237.25 225.125 325.683594 193.972656 356.898438 Z M 193.972656 356.898438 " fill-opacity="1" fill-rule="nonzero"/></g><path fill="#e9d8a6" d="M 49.789062 299.5 L 42.554688 299.5 C 42.554688 300.6875 42.582031 301.871094 42.640625 303.054688 C 42.699219 304.238281 42.785156 305.421875 42.902344 306.601562 C 43.019531 307.78125 43.164062 308.957031 43.335938 310.128906 C 43.511719 311.300781 43.714844 312.46875 43.945312 313.628906 C 44.175781 314.792969 44.433594 315.949219 44.722656 317.097656 C 45.011719 318.25 45.324219 319.390625 45.667969 320.523438 C 46.011719 321.660156 46.386719 322.785156 46.785156 323.902344 C 47.183594 325.015625 47.609375 326.121094 48.0625 327.21875 C 48.515625 328.3125 48.996094 329.394531 49.5 330.46875 C 50.007812 331.539062 50.539062 332.597656 51.097656 333.640625 C 51.65625 334.6875 52.238281 335.71875 52.847656 336.734375 C 53.457031 337.753906 54.089844 338.753906 54.75 339.738281 C 55.40625 340.722656 56.089844 341.691406 56.792969 342.644531 C 57.5 343.597656 58.226562 344.53125 58.980469 345.449219 C 59.730469 346.363281 60.503906 347.261719 61.300781 348.140625 C 62.09375 349.019531 62.910156 349.875 63.75 350.714844 C 64.585938 351.550781 65.441406 352.367188 66.320312 353.164062 C 67.199219 353.960938 68.09375 354.734375 69.011719 355.488281 C 69.925781 356.238281 70.859375 356.96875 71.808594 357.675781 C 72.761719 358.378906 73.730469 359.0625 74.714844 359.722656 C 75.699219 360.378906 76.699219 361.011719 77.714844 361.621094 C 78.730469 362.230469 79.761719 362.816406 80.804688 363.375 C 81.847656 363.933594 82.90625 364.464844 83.976562 364.972656 C 85.046875 365.480469 86.128906 365.960938 87.222656 366.414062 C 88.316406 366.867188 89.421875 367.292969 90.539062 367.691406 C 91.652344 368.09375 92.777344 368.464844 93.910156 368.808594 C 95.042969 369.152344 96.183594 369.46875 97.332031 369.757812 C 98.480469 370.042969 99.636719 370.304688 100.796875 370.535156 C 101.960938 370.765625 103.125 370.96875 104.296875 371.144531 C 105.46875 371.316406 106.644531 371.460938 107.824219 371.578125 C 109 371.695312 110.183594 371.78125 111.367188 371.839844 C 112.546875 371.898438 113.730469 371.925781 114.914062 371.925781 L 114.914062 364.683594 C 113.851562 364.683594 112.785156 364.660156 111.71875 364.605469 C 110.65625 364.554688 109.59375 364.476562 108.53125 364.371094 C 107.472656 364.265625 106.414062 364.136719 105.359375 363.980469 C 104.304688 363.824219 103.257812 363.640625 102.210938 363.433594 C 101.164062 363.222656 100.125 362.988281 99.089844 362.730469 C 98.058594 362.472656 97.03125 362.1875 96.011719 361.878906 C 94.992188 361.566406 93.980469 361.234375 92.976562 360.875 C 91.972656 360.515625 90.976562 360.128906 89.992188 359.722656 C 89.007812 359.3125 88.035156 358.882812 87.070312 358.425781 C 86.109375 357.96875 85.15625 357.492188 84.214844 356.988281 C 83.277344 356.484375 82.347656 355.960938 81.433594 355.410156 C 80.519531 354.863281 79.621094 354.292969 78.734375 353.699219 C 77.847656 353.105469 76.976562 352.492188 76.121094 351.855469 C 75.265625 351.222656 74.425781 350.566406 73.601562 349.886719 C 72.777344 349.210938 71.96875 348.515625 71.179688 347.796875 C 70.390625 347.082031 69.617188 346.347656 68.863281 345.59375 C 68.109375 344.839844 67.375 344.066406 66.660156 343.277344 C 65.945312 342.484375 65.25 341.675781 64.574219 340.851562 C 63.898438 340.027344 63.242188 339.1875 62.605469 338.332031 C 61.972656 337.472656 61.359375 336.601562 60.765625 335.714844 C 60.171875 334.828125 59.605469 333.925781 59.054688 333.011719 C 58.507812 332.097656 57.984375 331.167969 57.480469 330.226562 C 56.976562 329.289062 56.5 328.335938 56.042969 327.371094 C 55.585938 326.40625 55.15625 325.429688 54.746094 324.445312 C 54.339844 323.460938 53.957031 322.464844 53.597656 321.460938 C 53.238281 320.457031 52.902344 319.445312 52.59375 318.421875 C 52.285156 317.402344 52 316.375 51.742188 315.339844 C 51.484375 314.304688 51.25 313.265625 51.042969 312.21875 C 50.832031 311.171875 50.652344 310.121094 50.496094 309.066406 C 50.339844 308.011719 50.207031 306.953125 50.105469 305.890625 C 50 304.828125 49.921875 303.765625 49.867188 302.699219 C 49.816406 301.632812 49.789062 300.566406 49.789062 299.5 Z M 49.789062 299.5 " fill-opacity="1" fill-rule="nonzero"/><g fill="#e9d8a6" fill-opacity="1"><g transform="translate(45.582923, 102.370931)"><g><path d="M 4.15625 0 L 4.15625 -42.8125 L 11.984375 -42.8125 L 11.984375 -6.109375 L 30.9375 -6.109375 L 30.9375 0 Z M 4.15625 0 "/></g></g></g><g fill="#e9d8a6" fill-opacity="1"><g transform="translate(79.277207, 102.370931)"><g><path d="M 2.5 -27.765625 L 5.875 -42.8125 L 14.125 -42.8125 L 7.890625 -27.765625 Z M 2.5 -27.765625 "/></g></g></g><g fill="#e9d8a6" fill-opacity="1"><g transform="translate(95.42112, 102.370931)"><g><path d="M 24.21875 0.734375 C 19.9375 0.734375 16.191406 -0.203125 12.984375 -2.078125 C 9.785156 -3.953125 7.28125 -6.550781 5.46875 -9.875 C 3.65625 -13.195312 2.75 -17.039062 2.75 -21.40625 C 2.75 -25.769531 3.65625 -29.613281 5.46875 -32.9375 C 7.28125 -36.257812 9.785156 -38.859375 12.984375 -40.734375 C 16.191406 -42.609375 19.9375 -43.546875 24.21875 -43.546875 C 28.457031 -43.546875 32.1875 -42.609375 35.40625 -40.734375 C 38.625 -38.859375 41.128906 -36.257812 42.921875 -32.9375 C 44.722656 -29.613281 45.625 -25.769531 45.625 -21.40625 C 45.625 -17.039062 44.722656 -13.195312 42.921875 -9.875 C 41.128906 -6.550781 38.625 -3.953125 35.40625 -2.078125 C 32.1875 -0.203125 28.457031 0.734375 24.21875 0.734375 Z M 24.21875 -6.296875 C 28.289062 -6.296875 31.539062 -7.640625 33.96875 -10.328125 C 36.394531 -13.023438 37.609375 -16.71875 37.609375 -21.40625 C 37.609375 -26.09375 36.394531 -29.78125 33.96875 -32.46875 C 31.539062 -35.164062 28.289062 -36.515625 24.21875 -36.515625 C 20.144531 -36.515625 16.882812 -35.164062 14.4375 -32.46875 C 11.988281 -29.78125 10.765625 -26.09375 10.765625 -21.40625 C 10.765625 -16.71875 11.988281 -13.023438 14.4375 -10.328125 C 16.882812 -7.640625 20.144531 -6.296875 24.21875 -6.296875 Z M 24.21875 -6.296875 "/></g></g></g><g fill="#e9d8a6" fill-opacity="1"><g transform="translate(143.791683, 102.370931)"><g><path d="M 16.578125 0 L 0.921875 -42.8125 L 9.296875 -42.8125 L 21.40625 -8.015625 L 33.578125 -42.8125 L 41.828125 -42.8125 L 26.171875 0 Z M 16.578125 0 "/></g></g></g><g fill="#e9d8a6" fill-opacity="1"><g transform="translate(186.536348, 102.370931)"><g><path d="M 24.21875 0.734375 C 19.9375 0.734375 16.191406 -0.203125 12.984375 -2.078125 C 9.785156 -3.953125 7.28125 -6.550781 5.46875 -9.875 C 3.65625 -13.195312 2.75 -17.039062 2.75 -21.40625 C 2.75 -25.769531 3.65625 -29.613281 5.46875 -32.9375 C 7.28125 -36.257812 9.785156 -38.859375 12.984375 -40.734375 C 16.191406 -42.609375 19.9375 -43.546875 24.21875 -43.546875 C 28.457031 -43.546875 32.1875 -42.609375 35.40625 -40.734375 C 38.625 -38.859375 41.128906 -36.257812 42.921875 -32.9375 C 44.722656 -29.613281 45.625 -25.769531 45.625 -21.40625 C 45.625 -17.039062 44.722656 -13.195312 42.921875 -9.875 C 41.128906 -6.550781 38.625 -3.953125 35.40625 -2.078125 C 32.1875 -0.203125 28.457031 0.734375 24.21875 0.734375 Z M 24.21875 -6.296875 C 28.289062 -6.296875 31.539062 -7.640625 33.96875 -10.328125 C 36.394531 -13.023438 37.609375 -16.71875 37.609375 -21.40625 C 37.609375 -26.09375 36.394531 -29.78125 33.96875 -32.46875 C 31.539062 -35.164062 28.289062 -36.515625 24.21875 -36.515625 C 20.144531 -36.515625 16.882812 -35.164062 14.4375 -32.46875 C 11.988281 -29.78125 10.765625 -26.09375 10.765625 -21.40625 C 10.765625 -16.71875 11.988281 -13.023438 14.4375 -10.328125 C 16.882812 -7.640625 20.144531 -6.296875 24.21875 -6.296875 Z M 24.21875 -6.296875 "/></g></g></g></svg>