<svg xmlns="http://www.w3.org/2000/svg" xmlns:xlink="http://www.w3.org/1999/xlink" width="300px" zoomAndPan="magnify" viewBox="0 0 1024.5 229.499994" height="568" preserveAspectRatio="xMidYMid meet" version="1.0"><defs><g/><clipPath id="551d42eff0"><path d="M 368.472656 86.117188 L 500 86.117188 L 500 218 L 368.472656 218 Z M 368.472656 86.117188 " clip-rule="nonzero"/></clipPath></defs><g clip-path="url(#551d42eff0)"><path fill="#e9d8a6" d="M 446.183594 107.84375 C 438.238281 95.277344 428.261719 86.117188 417.101562 86.117188 C 389.011719 86.117188 368.488281 144.015625 368.488281 168.621094 C 368.488281 169.503906 368.511719 170.390625 368.5625 171.273438 C 368.609375 172.15625 368.683594 173.035156 368.777344 173.917969 C 368.875 174.796875 368.996094 175.671875 369.140625 176.542969 C 369.285156 177.417969 369.453125 178.285156 369.644531 179.148438 C 369.835938 180.011719 370.050781 180.871094 370.289062 181.722656 C 370.527344 182.574219 370.789062 183.417969 371.074219 184.257812 C 371.359375 185.09375 371.664062 185.925781 371.996094 186.746094 C 372.324219 187.566406 372.675781 188.378906 373.050781 189.179688 C 373.421875 189.980469 373.820312 190.773438 374.234375 191.550781 C 374.652344 192.332031 375.089844 193.101562 375.550781 193.855469 C 376.007812 194.613281 376.488281 195.355469 376.988281 196.085938 C 377.488281 196.816406 378.003906 197.53125 378.542969 198.234375 C 379.082031 198.933594 379.640625 199.621094 380.214844 200.292969 C 380.789062 200.964844 381.382812 201.621094 381.996094 202.257812 C 382.609375 202.898438 383.234375 203.519531 383.882812 204.125 C 384.527344 204.726562 385.1875 205.316406 385.867188 205.882812 C 386.542969 206.453125 387.234375 207 387.941406 207.53125 C 388.648438 208.0625 389.371094 208.574219 390.105469 209.066406 C 390.839844 209.554688 391.589844 210.027344 392.351562 210.476562 C 393.109375 210.925781 393.882812 211.355469 394.667969 211.765625 C 395.453125 212.171875 396.246094 212.558594 397.050781 212.925781 C 397.855469 213.289062 398.671875 213.632812 399.496094 213.953125 C 400.320312 214.273438 401.152344 214.570312 401.992188 214.847656 C 402.832031 215.121094 403.679688 215.371094 404.53125 215.601562 C 405.386719 215.832031 406.246094 216.035156 407.113281 216.21875 C 407.976562 216.398438 408.847656 216.558594 409.71875 216.691406 C 410.59375 216.824219 411.46875 216.9375 412.351562 217.023438 C 413.230469 217.109375 414.109375 217.171875 414.996094 217.210938 C 415.878906 217.25 416.761719 217.261719 417.644531 217.253906 C 418.527344 217.242188 419.410156 217.207031 420.292969 217.152344 C 421.175781 217.09375 422.054688 217.011719 422.933594 216.902344 C 423.8125 216.796875 424.683594 216.667969 425.554688 216.515625 C 427.472656 216.859375 429.402344 217.085938 431.34375 217.195312 C 433.289062 217.308594 435.230469 217.300781 437.171875 217.179688 C 439.113281 217.054688 441.042969 216.8125 442.957031 216.457031 C 444.871094 216.101562 446.753906 215.628906 448.613281 215.046875 C 450.46875 214.460938 452.285156 213.765625 454.054688 212.960938 C 455.828125 212.160156 457.546875 211.25 459.210938 210.238281 C 460.875 209.226562 462.472656 208.121094 464 206.914062 C 465.53125 205.710938 466.984375 204.417969 468.355469 203.039062 C 485.773438 185.542969 512.214844 130.140625 492.304688 110.273438 C 480.933594 98.914062 459.160156 103.589844 446.183594 107.84375 Z M 417.101562 213.042969 C 415.648438 213.042969 414.195312 212.972656 412.75 212.832031 C 411.304688 212.6875 409.867188 212.476562 408.441406 212.191406 C 407.015625 211.90625 405.605469 211.554688 404.214844 211.132812 C 402.824219 210.710938 401.457031 210.21875 400.113281 209.664062 C 398.773438 209.105469 397.460938 208.484375 396.175781 207.800781 C 394.894531 207.113281 393.648438 206.367188 392.441406 205.558594 C 391.234375 204.75 390.066406 203.882812 388.941406 202.960938 C 387.820312 202.039062 386.742188 201.0625 385.714844 200.03125 C 384.6875 199.003906 383.710938 197.925781 382.789062 196.804688 C 381.867188 195.679688 381.003906 194.511719 380.195312 193.300781 C 379.386719 192.089844 378.640625 190.84375 377.957031 189.5625 C 377.269531 188.277344 376.648438 186.964844 376.09375 185.621094 C 375.535156 184.277344 375.046875 182.90625 374.625 181.515625 C 374.203125 180.125 373.851562 178.714844 373.566406 177.285156 C 373.285156 175.859375 373.070312 174.421875 372.929688 172.972656 C 372.785156 171.527344 372.714844 170.074219 372.714844 168.621094 C 372.714844 155.671875 378.230469 135.554688 386.113281 119.730469 C 395.414062 101.050781 406.722656 90.347656 417.101562 90.347656 C 440.941406 90.347656 461.488281 142.851562 461.488281 168.621094 C 461.488281 170.074219 461.414062 171.527344 461.273438 172.972656 C 461.128906 174.421875 460.917969 175.859375 460.632812 177.285156 C 460.351562 178.714844 459.996094 180.125 459.574219 181.515625 C 459.152344 182.90625 458.664062 184.277344 458.109375 185.621094 C 457.550781 186.964844 456.929688 188.277344 456.246094 189.5625 C 455.5625 190.84375 454.8125 192.089844 454.007812 193.300781 C 453.199219 194.511719 452.335938 195.679688 451.410156 196.804688 C 450.488281 197.925781 449.515625 199.003906 448.488281 200.03125 C 447.457031 201.0625 446.382812 202.039062 445.257812 202.960938 C 444.136719 203.882812 442.96875 204.75 441.761719 205.558594 C 440.550781 206.367188 439.304688 207.113281 438.023438 207.800781 C 436.742188 208.484375 435.429688 209.105469 434.085938 209.664062 C 432.742188 210.21875 431.375 210.710938 429.984375 211.132812 C 428.59375 211.554688 427.1875 211.90625 425.761719 212.191406 C 424.335938 212.476562 422.898438 212.6875 421.453125 212.832031 C 420.003906 212.972656 418.554688 213.042969 417.101562 213.042969 Z M 465.398438 200.035156 C 463.523438 201.90625 461.5 203.597656 459.324219 205.109375 C 457.148438 206.617188 454.859375 207.921875 452.449219 209.023438 C 450.042969 210.121094 447.554688 211 444.988281 211.652344 C 442.421875 212.308594 439.820312 212.730469 437.179688 212.917969 C 439.296875 211.957031 441.332031 210.851562 443.289062 209.597656 C 445.246094 208.347656 447.101562 206.960938 448.863281 205.441406 C 450.621094 203.921875 452.261719 202.289062 453.785156 200.53125 C 455.308594 198.777344 456.699219 196.925781 457.960938 194.972656 C 459.21875 193.015625 460.332031 190.984375 461.296875 188.871094 C 462.265625 186.757812 463.078125 184.585938 463.734375 182.355469 C 464.390625 180.125 464.882812 177.859375 465.214844 175.558594 C 465.546875 173.257812 465.714844 170.945312 465.714844 168.621094 C 465.714844 154.742188 459.183594 130.265625 448.445312 111.503906 C 467.339844 105.472656 482.265625 106.066406 489.300781 113.214844 C 506.148438 130.140625 483.59375 181.800781 465.398438 200.035156 Z M 465.398438 200.035156 " fill-opacity="1" fill-rule="nonzero"/></g><path fill="#e9d8a6" d="M 381.167969 166.503906 L 376.941406 166.503906 C 376.941406 167.890625 377.007812 169.273438 377.144531 170.652344 C 377.28125 172.03125 377.484375 173.398438 377.753906 174.757812 C 378.023438 176.117188 378.359375 177.460938 378.761719 178.785156 C 379.164062 180.113281 379.628906 181.414062 380.160156 182.695312 C 380.691406 183.976562 381.28125 185.226562 381.933594 186.449219 C 382.585938 187.671875 383.296875 188.859375 384.066406 190.011719 C 384.835938 191.164062 385.660156 192.273438 386.539062 193.34375 C 387.414062 194.417969 388.34375 195.441406 389.324219 196.421875 C 390.300781 197.402344 391.328125 198.332031 392.398438 199.210938 C 393.46875 200.089844 394.578125 200.914062 395.730469 201.683594 C 396.878906 202.453125 398.066406 203.164062 399.289062 203.816406 C 400.507812 204.472656 401.757812 205.0625 403.039062 205.59375 C 404.316406 206.125 405.617188 206.589844 406.941406 206.992188 C 408.269531 207.394531 409.609375 207.730469 410.96875 208 C 412.324219 208.269531 413.691406 208.472656 415.070312 208.609375 C 416.449219 208.746094 417.828125 208.8125 419.214844 208.8125 L 419.214844 204.582031 C 417.96875 204.582031 416.726562 204.523438 415.484375 204.398438 C 414.246094 204.277344 413.015625 204.09375 411.792969 203.851562 C 410.570312 203.609375 409.363281 203.304688 408.171875 202.941406 C 406.976562 202.582031 405.804688 202.160156 404.65625 201.683594 C 403.503906 201.207031 402.378906 200.675781 401.28125 200.085938 C 400.179688 199.5 399.113281 198.859375 398.078125 198.164062 C 397.042969 197.472656 396.042969 196.730469 395.078125 195.941406 C 394.117188 195.148438 393.195312 194.3125 392.3125 193.429688 C 391.429688 192.546875 390.59375 191.625 389.804688 190.660156 C 389.015625 189.695312 388.273438 188.695312 387.582031 187.660156 C 386.886719 186.621094 386.25 185.554688 385.660156 184.453125 C 385.074219 183.355469 384.542969 182.230469 384.066406 181.078125 C 383.589844 179.925781 383.167969 178.75 382.808594 177.558594 C 382.445312 176.363281 382.144531 175.15625 381.898438 173.933594 C 381.65625 172.710938 381.472656 171.476562 381.351562 170.238281 C 381.230469 168.996094 381.167969 167.75 381.167969 166.503906 Z M 381.167969 166.503906 " fill-opacity="1" fill-rule="nonzero"/><g fill="#e9d8a6" fill-opacity="1"><g transform="translate(383.888139, 51.225637)"><g><path d="M 2.140625 0 L 2.140625 -22.015625 L 6.171875 -22.015625 L 6.171875 -3.140625 L 15.921875 -3.140625 L 15.921875 0 Z M 2.140625 0 "/></g></g></g><g fill="#e9d8a6" fill-opacity="1"><g transform="translate(401.215379, 51.225637)"><g><path d="M 1.296875 -14.28125 L 3.015625 -22.015625 L 7.265625 -22.015625 L 4.0625 -14.28125 Z M 1.296875 -14.28125 "/></g></g></g><g fill="#e9d8a6" fill-opacity="1"><g transform="translate(409.517359, 51.225637)"><g><path d="M 12.453125 0.375 C 10.253906 0.375 8.332031 -0.101562 6.6875 -1.0625 C 5.039062 -2.03125 3.75 -3.367188 2.8125 -5.078125 C 1.882812 -6.785156 1.421875 -8.765625 1.421875 -11.015625 C 1.421875 -13.253906 1.882812 -15.226562 2.8125 -16.9375 C 3.75 -18.644531 5.039062 -19.976562 6.6875 -20.9375 C 8.332031 -21.90625 10.253906 -22.390625 12.453125 -22.390625 C 14.640625 -22.390625 16.5625 -21.90625 18.21875 -20.9375 C 19.875 -19.976562 21.160156 -18.644531 22.078125 -16.9375 C 23.003906 -15.226562 23.46875 -13.253906 23.46875 -11.015625 C 23.46875 -8.765625 23.003906 -6.785156 22.078125 -5.078125 C 21.160156 -3.367188 19.875 -2.03125 18.21875 -1.0625 C 16.5625 -0.101562 14.640625 0.375 12.453125 0.375 Z M 12.453125 -3.234375 C 14.546875 -3.234375 16.21875 -3.925781 17.46875 -5.3125 C 18.71875 -6.695312 19.34375 -8.597656 19.34375 -11.015625 C 19.34375 -13.421875 18.71875 -15.316406 17.46875 -16.703125 C 16.21875 -18.085938 14.546875 -18.78125 12.453125 -18.78125 C 10.359375 -18.78125 8.679688 -18.085938 7.421875 -16.703125 C 6.160156 -15.316406 5.53125 -13.421875 5.53125 -11.015625 C 5.53125 -8.597656 6.160156 -6.695312 7.421875 -5.3125 C 8.679688 -3.925781 10.359375 -3.234375 12.453125 -3.234375 Z M 12.453125 -3.234375 "/></g></g></g><g fill="#e9d8a6" fill-opacity="1"><g transform="translate(434.391857, 51.225637)"><g><path d="M 8.53125 0 L 0.46875 -22.015625 L 4.78125 -22.015625 L 11.015625 -4.125 L 17.265625 -22.015625 L 21.515625 -22.015625 L 13.46875 0 Z M 8.53125 0 "/></g></g></g><g fill="#e9d8a6" fill-opacity="1"><g transform="translate(456.373234, 51.225637)"><g><path d="M 12.453125 0.375 C 10.253906 0.375 8.332031 -0.101562 6.6875 -1.0625 C 5.039062 -2.03125 3.75 -3.367188 2.8125 -5.078125 C 1.882812 -6.785156 1.421875 -8.765625 1.421875 -11.015625 C 1.421875 -13.253906 1.882812 -15.226562 2.8125 -16.9375 C 3.75 -18.644531 5.039062 -19.976562 6.6875 -20.9375 C 8.332031 -21.90625 10.253906 -22.390625 12.453125 -22.390625 C 14.640625 -22.390625 16.5625 -21.90625 18.21875 -20.9375 C 19.875 -19.976562 21.160156 -18.644531 22.078125 -16.9375 C 23.003906 -15.226562 23.46875 -13.253906 23.46875 -11.015625 C 23.46875 -8.765625 23.003906 -6.785156 22.078125 -5.078125 C 21.160156 -3.367188 19.875 -2.03125 18.21875 -1.0625 C 16.5625 -0.101562 14.640625 0.375 12.453125 0.375 Z M 12.453125 -3.234375 C 14.546875 -3.234375 16.21875 -3.925781 17.46875 -5.3125 C 18.71875 -6.695312 19.34375 -8.597656 19.34375 -11.015625 C 19.34375 -13.421875 18.71875 -15.316406 17.46875 -16.703125 C 16.21875 -18.085938 14.546875 -18.78125 12.453125 -18.78125 C 10.359375 -18.78125 8.679688 -18.085938 7.421875 -16.703125 C 6.160156 -15.316406 5.53125 -13.421875 5.53125 -11.015625 C 5.53125 -8.597656 6.160156 -6.695312 7.421875 -5.3125 C 8.679688 -3.925781 10.359375 -3.234375 12.453125 -3.234375 Z M 12.453125 -3.234375 "/></g></g></g></svg>